<svg width="743" height="47" viewBox="0 0 743 47" fill="none" xmlns="http://www.w3.org/2000/svg">
<path d="M24.2344 39.5391H0V5.78906H24.2344V10.1016H9.30469V20.5312H20.8359V24.8203H9.30469V35.2266H24.2344V39.5391Z" fill="url(#paint0_linear_27_29)"/>
<path d="M55.8141 39.5391H47.8922L41.2594 30.0469L34.4859 39.5391H29.0016L39.1969 27.0703L29.0016 12.4688H36.9234L43.3453 21.6562L50.3297 12.4688H55.8141L45.4078 24.6094L55.8141 39.5391Z" fill="url(#paint1_linear_27_29)"/>
<path d="M85.7531 19.1719L82.3312 20.5312C81.7844 18.8125 80.8703 17.4922 79.5891 16.5703C78.3078 15.6484 76.7687 15.1875 74.9719 15.1875C74.0031 15.1875 73.1359 15.3438 72.3703 15.6562C71.6203 15.9531 70.9562 16.3672 70.3781 16.8984C69.8156 17.4297 69.3312 18.0469 68.925 18.75C68.5344 19.4531 68.2141 20.2031 67.9641 21C67.7141 21.7969 67.5344 22.625 67.425 23.4844C67.3156 24.3281 67.2609 25.1484 67.2609 25.9453C67.2609 26.8047 67.3078 27.6719 67.4016 28.5469C67.4953 29.4219 67.6516 30.2656 67.8703 31.0781C68.1047 31.875 68.4094 32.625 68.7844 33.3281C69.1594 34.0156 69.6281 34.6172 70.1906 35.1328C70.7687 35.6484 71.4484 36.0547 72.2297 36.3516C73.0266 36.6484 73.9406 36.7969 74.9719 36.7969C75.8 36.7969 76.5891 36.6719 77.3391 36.4219C78.0891 36.1719 78.7766 35.8203 79.4016 35.3672C80.0266 34.9141 80.5812 34.375 81.0656 33.75C81.55 33.125 81.9328 32.4297 82.2141 31.6641L85.6594 32.9297C85.1437 34.1641 84.4562 35.2344 83.5969 36.1406C82.7531 37.0312 81.7922 37.7734 80.7141 38.3672C79.6359 38.9453 78.4797 39.375 77.2453 39.6562C76.0109 39.9375 74.7609 40.0781 73.4953 40.0781C71.4484 40.0781 69.55 39.7344 67.8 39.0469C66.05 38.3438 64.5344 37.3672 63.2531 36.1172C61.9875 34.8516 60.9953 33.3594 60.2766 31.6406C59.5578 29.9062 59.1984 28.0078 59.1984 25.9453C59.1984 23.8672 59.55 21.9609 60.2531 20.2266C60.9719 18.4922 61.9641 17 63.2297 15.75C64.4953 14.5 66.0031 13.5312 67.7531 12.8438C69.5031 12.1562 71.4172 11.8125 73.4953 11.8125C74.8078 11.8125 76.0891 11.9609 77.3391 12.2578C78.5891 12.5391 79.7453 12.9844 80.8078 13.5938C81.8859 14.1875 82.8469 14.9453 83.6906 15.8672C84.55 16.7891 85.2375 17.8906 85.7531 19.1719Z" fill="url(#paint2_linear_27_29)"/>
<path d="M100.762 39.5391H92.8406V0H95.8875L100.762 8.22656V39.5391Z" fill="url(#paint3_linear_27_29)"/>
<path d="M108.389 27.9609C108.389 26.7266 108.491 25.4453 108.694 24.1172C108.912 22.7891 109.217 21.4609 109.608 20.1328C110.014 18.8047 110.498 17.4922 111.061 16.1953C111.623 14.8984 112.256 13.6562 112.959 12.4688H118.748C118.358 13.6406 118.006 14.8672 117.694 16.1484C117.397 17.4141 117.139 18.6875 116.92 19.9688C116.717 21.2344 116.553 22.4766 116.428 23.6953C116.319 24.9141 116.264 26.0469 116.264 27.0938C116.264 27.7031 116.287 28.3594 116.334 29.0625C116.397 29.75 116.498 30.4453 116.639 31.1484C116.78 31.8359 116.975 32.5 117.225 33.1406C117.491 33.7812 117.827 34.3516 118.233 34.8516C118.639 35.3359 119.131 35.7266 119.709 36.0234C120.303 36.3047 120.998 36.4453 121.795 36.4453C122.577 36.4453 123.272 36.2734 123.881 35.9297C124.506 35.5703 125.053 35.1094 125.522 34.5469C125.991 33.9688 126.389 33.3125 126.717 32.5781C127.045 31.8438 127.311 31.0938 127.514 30.3281C127.733 29.5469 127.889 28.7891 127.983 28.0547C128.092 27.3047 128.147 26.6328 128.147 26.0391V12.4688H136.069V39.5391H133.022L129.389 33.2344C128.936 34.2812 128.381 35.2344 127.725 36.0938C127.084 36.9375 126.35 37.6641 125.522 38.2734C124.694 38.8828 123.772 39.3516 122.756 39.6797C121.756 40.0078 120.67 40.1719 119.498 40.1719C117.623 40.1719 115.991 39.8672 114.6 39.2578C113.209 38.6484 112.053 37.8047 111.131 36.7266C110.209 35.6484 109.522 34.3672 109.069 32.8828C108.616 31.3828 108.389 29.7422 108.389 27.9609Z" fill="url(#paint4_linear_27_29)"/>
<path d="M168.375 30.8906C168.375 32.0781 168.203 33.1328 167.859 34.0547C167.516 34.9766 167.047 35.7812 166.453 36.4688C165.859 37.1406 165.156 37.7109 164.344 38.1797C163.531 38.6328 162.656 39 161.719 39.2812C160.797 39.5625 159.828 39.7656 158.812 39.8906C157.797 40.0156 156.789 40.0781 155.789 40.0781C154.445 40.0781 153.258 39.9922 152.227 39.8203C151.195 39.6484 150.211 39.375 149.273 39C148.336 38.6094 147.398 38.1094 146.461 37.5C145.539 36.8906 144.508 36.1484 143.367 35.2734L147.984 31.5C148.406 32.2969 148.961 33.0234 149.648 33.6797C150.352 34.3203 151.078 34.875 151.828 35.3438C152.578 35.8125 153.305 36.1719 154.008 36.4219C154.711 36.6719 155.281 36.7969 155.719 36.7969C156.078 36.7969 156.484 36.7891 156.938 36.7734C157.391 36.7422 157.852 36.6953 158.32 36.6328C158.789 36.5547 159.25 36.4453 159.703 36.3047C160.156 36.1641 160.555 35.9766 160.898 35.7422C161.258 35.4922 161.539 35.1875 161.742 34.8281C161.961 34.4531 162.07 34.0078 162.07 33.4922C162.07 32.9609 161.93 32.5 161.648 32.1094C161.383 31.7031 161.031 31.3516 160.594 31.0547C160.156 30.7578 159.656 30.5078 159.094 30.3047C158.531 30.1016 157.961 29.9219 157.383 29.7656C156.82 29.6094 156.273 29.4766 155.742 29.3672C155.211 29.2422 154.75 29.125 154.359 29.0156C153.641 28.8125 152.883 28.6094 152.086 28.4062C151.289 28.1875 150.5 27.9453 149.719 27.6797C148.938 27.3984 148.188 27.0703 147.469 26.6953C146.766 26.3203 146.141 25.875 145.594 25.3594C145.062 24.8281 144.633 24.2109 144.305 23.5078C143.992 22.7891 143.836 21.9531 143.836 21C143.836 19.25 144.18 17.7891 144.867 16.6172C145.57 15.4297 146.492 14.4844 147.633 13.7812C148.773 13.0625 150.07 12.5547 151.523 12.2578C152.977 11.9609 154.453 11.8125 155.953 11.8125C156.984 11.8125 158.07 11.9219 159.211 12.1406C160.352 12.3438 161.461 12.6562 162.539 13.0781C163.617 13.4844 164.625 13.9844 165.562 14.5781C166.5 15.1719 167.281 15.8516 167.906 16.6172L163.289 20.4141C162.945 19.4766 162.492 18.6719 161.93 18C161.383 17.3281 160.781 16.7812 160.125 16.3594C159.484 15.9219 158.82 15.6016 158.133 15.3984C157.461 15.1953 156.836 15.0938 156.258 15.0938C155.695 15.0938 155.062 15.1172 154.359 15.1641C153.656 15.2109 152.992 15.3438 152.367 15.5625C151.758 15.7812 151.234 16.1172 150.797 16.5703C150.375 17.0078 150.164 17.6172 150.164 18.3984C150.164 18.9609 150.289 19.4453 150.539 19.8516C150.805 20.2422 151.148 20.5859 151.57 20.8828C151.992 21.1641 152.469 21.4062 153 21.6094C153.547 21.7969 154.102 21.9688 154.664 22.125C155.227 22.2656 155.773 22.3906 156.305 22.5C156.836 22.6094 157.312 22.7266 157.734 22.8516C158.453 23.0547 159.211 23.2656 160.008 23.4844C160.82 23.6875 161.617 23.9297 162.398 24.2109C163.18 24.4766 163.93 24.7969 164.648 25.1719C165.383 25.5312 166.023 25.9766 166.57 26.5078C167.117 27.0391 167.555 27.6641 167.883 28.3828C168.211 29.0859 168.375 29.9219 168.375 30.8906Z" fill="url(#paint5_linear_27_29)"/>
<path d="M184.111 5.92969C184.111 6.52344 183.994 7.08594 183.759 7.61719C183.541 8.14844 183.236 8.60938 182.845 9C182.455 9.39062 181.994 9.70312 181.463 9.9375C180.931 10.1562 180.369 10.2656 179.775 10.2656C179.181 10.2656 178.619 10.1562 178.088 9.9375C177.572 9.70312 177.119 9.39062 176.728 9C176.338 8.60938 176.025 8.14844 175.791 7.61719C175.572 7.08594 175.463 6.52344 175.463 5.92969C175.463 5.33594 175.572 4.78125 175.791 4.26562C176.025 3.73438 176.338 3.27344 176.728 2.88281C177.119 2.49219 177.572 2.1875 178.088 1.96875C178.619 1.73438 179.181 1.61719 179.775 1.61719C180.369 1.61719 180.931 1.73438 181.463 1.96875C181.994 2.1875 182.455 2.49219 182.845 2.88281C183.236 3.27344 183.541 3.73438 183.759 4.26562C183.994 4.78125 184.111 5.33594 184.111 5.92969ZM183.759 39.5391H175.814V12.4922H183.759V39.5391Z" fill="url(#paint6_linear_27_29)"/>
<path d="M206.738 39.5391H199.613L189.769 12.4688H197.691L204.909 34.0312L211.917 12.4688H217.402L206.738 39.5391Z" fill="url(#paint7_linear_27_29)"/>
<path d="M229.106 26.6953C230.075 26.9141 231.044 27.0859 232.013 27.2109C232.981 27.3359 233.958 27.3984 234.942 27.3984C235.973 27.3984 236.927 27.3047 237.802 27.1172C238.692 26.9141 239.458 26.5859 240.098 26.1328C240.755 25.6641 241.27 25.0469 241.645 24.2812C242.02 23.5156 242.208 22.5625 242.208 21.4219C242.208 20.5 242.083 19.6562 241.833 18.8906C241.583 18.125 241.208 17.4688 240.708 16.9219C240.223 16.375 239.622 15.9531 238.903 15.6562C238.184 15.3438 237.348 15.1875 236.395 15.1875C235.505 15.1875 234.7 15.3516 233.981 15.6797C233.278 16.0078 232.653 16.4531 232.106 17.0156C231.575 17.5625 231.114 18.2031 230.723 18.9375C230.348 19.6719 230.036 20.4375 229.786 21.2344C229.536 22.0312 229.356 22.8359 229.247 23.6484C229.138 24.4609 229.083 25.2266 229.083 25.9453C229.083 26.0703 229.083 26.1953 229.083 26.3203C229.083 26.4453 229.091 26.5703 229.106 26.6953ZM248.63 21.3516C248.63 22.4609 248.45 23.4531 248.091 24.3281C247.731 25.1875 247.239 25.9453 246.614 26.6016C246.005 27.2578 245.294 27.8125 244.481 28.2656C243.669 28.7188 242.802 29.0938 241.88 29.3906C240.958 29.6719 240.005 29.875 239.02 30C238.052 30.125 237.106 30.1875 236.184 30.1875C235.013 30.1875 233.856 30.1094 232.716 29.9531C231.575 29.7812 230.45 29.5156 229.341 29.1562C229.513 30.1875 229.786 31.1719 230.161 32.1094C230.536 33.0312 231.036 33.8438 231.661 34.5469C232.286 35.2344 233.052 35.7812 233.958 36.1875C234.88 36.5938 235.966 36.7969 237.216 36.7969C238.044 36.7969 238.833 36.6719 239.583 36.4219C240.333 36.1719 241.02 35.8203 241.645 35.3672C242.27 34.9141 242.817 34.375 243.286 33.75C243.77 33.125 244.161 32.4297 244.458 31.6641L247.88 32.9297C247.364 34.1641 246.653 35.2344 245.747 36.1406C244.856 37.0312 243.841 37.7734 242.7 38.3672C241.575 38.9453 240.372 39.375 239.091 39.6562C237.825 39.9375 236.567 40.0781 235.317 40.0781C233.255 40.0781 231.348 39.7344 229.598 39.0469C227.848 38.3438 226.341 37.3672 225.075 36.1172C223.809 34.8672 222.817 33.375 222.098 31.6406C221.38 29.9062 221.02 28.0078 221.02 25.9453C221.02 23.8828 221.38 21.9844 222.098 20.25C222.817 18.5156 223.809 17.0234 225.075 15.7734C226.341 14.5234 227.848 13.5547 229.598 12.8672C231.348 12.1641 233.255 11.8125 235.317 11.8125C236.317 11.8125 237.341 11.8828 238.388 12.0234C239.434 12.1641 240.45 12.3906 241.434 12.7031C242.419 13 243.348 13.3906 244.223 13.875C245.098 14.3594 245.856 14.9609 246.497 15.6797C247.153 16.3828 247.669 17.2031 248.044 18.1406C248.434 19.0781 248.63 20.1484 248.63 21.3516Z" fill="url(#paint8_linear_27_29)"/>
<path d="M304.617 23.3906V23.8359C304.586 25.1484 304.445 26.5078 304.195 27.9141C303.961 29.3203 303.625 30.7266 303.188 32.1328C302.75 33.5391 302.227 34.9297 301.617 36.3047C301.008 37.6797 300.32 38.9922 299.555 40.2422C298.805 41.5078 297.992 42.6875 297.117 43.7812C296.242 44.8906 295.32 45.8672 294.352 46.7109L290.859 44.6953C291.406 43.7734 291.898 42.7656 292.336 41.6719C292.789 40.5938 293.195 39.4609 293.555 38.2734C293.914 37.0859 294.219 35.8672 294.469 34.6172C294.734 33.3672 294.953 32.125 295.125 30.8906C295.297 29.6562 295.422 28.4453 295.5 27.2578C295.594 26.0547 295.641 24.9141 295.641 23.8359C295.641 22.9922 295.633 22.0391 295.617 20.9766C295.617 19.8984 295.555 18.8047 295.43 17.6953C295.32 16.5859 295.133 15.5078 294.867 14.4609C294.602 13.3984 294.203 12.4531 293.672 11.625C293.156 10.7969 292.484 10.1328 291.656 9.63281C290.844 9.13281 289.828 8.88281 288.609 8.88281C287.531 8.88281 286.602 9.07031 285.82 9.44531C285.055 9.80469 284.398 10.2969 283.852 10.9219C283.32 11.5312 282.891 12.2422 282.562 13.0547C282.25 13.8672 282 14.7266 281.812 15.6328C281.641 16.5234 281.523 17.4297 281.461 18.3516C281.414 19.2578 281.391 20.1172 281.391 20.9297V27.4688H291.492V31.3359H281.391V39.5391H272.086V22.3828C272.086 19.9297 272.477 17.6484 273.258 15.5391C274.039 13.4297 275.141 11.6016 276.562 10.0547C278 8.49219 279.719 7.27344 281.719 6.39844C283.734 5.50781 285.977 5.0625 288.445 5.0625C290.117 5.0625 291.68 5.30469 293.133 5.78906C294.602 6.25781 295.938 6.91406 297.141 7.75781C298.344 8.58594 299.414 9.57812 300.352 10.7344C301.305 11.875 302.094 13.125 302.719 14.4844C303.359 15.8438 303.844 17.2812 304.172 18.7969C304.5 20.3125 304.648 21.8438 304.617 23.3906Z" fill="url(#paint9_linear_27_29)"/>
<path d="M339.877 24.0234C339.877 25.8516 339.65 27.7578 339.197 29.7422C338.759 31.7266 338.142 33.6719 337.345 35.5781C336.548 37.4844 335.595 39.2734 334.486 40.9453C333.377 42.6328 332.158 44.0859 330.83 45.3047L327.853 43.6875C328.275 42.9062 328.673 42.0312 329.048 41.0625C329.423 40.0938 329.759 39.0703 330.056 37.9922C330.369 36.8984 330.642 35.7734 330.877 34.6172C331.127 33.4609 331.33 32.3203 331.486 31.1953C331.658 30.0547 331.783 28.9531 331.861 27.8906C331.955 26.8125 332.002 25.8125 332.002 24.8906C332.002 24.2812 331.978 23.6328 331.931 22.9453C331.884 22.2422 331.783 21.5469 331.627 20.8594C331.486 20.1562 331.291 19.4844 331.041 18.8438C330.791 18.2031 330.455 17.6406 330.033 17.1562C329.627 16.6719 329.127 16.2812 328.533 15.9844C327.955 15.6875 327.267 15.5391 326.47 15.5391C325.689 15.5391 324.994 15.7188 324.384 16.0781C323.775 16.4219 323.236 16.8828 322.767 17.4609C322.298 18.0234 321.892 18.6719 321.548 19.4062C321.22 20.1406 320.947 20.8984 320.728 21.6797C320.525 22.4453 320.377 23.2031 320.283 23.9531C320.189 24.7031 320.142 25.375 320.142 25.9688V39.5391H312.197V12.4688H315.244L318.877 18.7734C319.314 17.7266 319.861 16.7734 320.517 15.9141C321.173 15.0547 321.916 14.3203 322.744 13.7109C323.572 13.1016 324.486 12.6328 325.486 12.3047C326.502 11.9766 327.595 11.8125 328.767 11.8125C330.642 11.8125 332.275 12.1172 333.666 12.7266C335.056 13.3359 336.212 14.1875 337.134 15.2812C338.056 16.3594 338.744 17.6484 339.197 19.1484C339.65 20.6328 339.877 22.2578 339.877 24.0234Z" fill="url(#paint10_linear_27_29)"/>
<path d="M355.823 5.92969C355.823 6.52344 355.706 7.08594 355.472 7.61719C355.253 8.14844 354.948 8.60938 354.558 9C354.167 9.39062 353.706 9.70312 353.175 9.9375C352.644 10.1562 352.081 10.2656 351.488 10.2656C350.894 10.2656 350.331 10.1562 349.8 9.9375C349.284 9.70312 348.831 9.39062 348.441 9C348.05 8.60938 347.738 8.14844 347.503 7.61719C347.284 7.08594 347.175 6.52344 347.175 5.92969C347.175 5.33594 347.284 4.78125 347.503 4.26562C347.738 3.73438 348.05 3.27344 348.441 2.88281C348.831 2.49219 349.284 2.1875 349.8 1.96875C350.331 1.73438 350.894 1.61719 351.488 1.61719C352.081 1.61719 352.644 1.73438 353.175 1.96875C353.706 2.1875 354.167 2.49219 354.558 2.88281C354.948 3.27344 355.253 3.73438 355.472 4.26562C355.706 4.78125 355.823 5.33594 355.823 5.92969ZM355.472 39.5391H347.527V12.4922H355.472V39.5391Z" fill="url(#paint11_linear_27_29)"/>
<path d="M406.411 23.7422C406.411 25.6016 406.192 27.5391 405.755 29.5547C405.317 31.5703 404.7 33.5391 403.903 35.4609C403.122 37.3672 402.177 39.1719 401.067 40.875C399.958 42.5781 398.723 44.0547 397.364 45.3047L394.388 43.6875C394.841 42.875 395.255 41.9609 395.63 40.9453C396.005 39.9297 396.348 38.8594 396.661 37.7344C396.973 36.6094 397.247 35.4531 397.481 34.2656C397.716 33.0781 397.911 31.8984 398.067 30.7266C398.239 29.5391 398.364 28.3906 398.442 27.2812C398.52 26.1719 398.559 25.1328 398.559 24.1641C398.559 23.6172 398.544 23.0234 398.513 22.3828C398.481 21.7422 398.411 21.1016 398.302 20.4609C398.208 19.8203 398.059 19.2109 397.856 18.6328C397.653 18.0391 397.372 17.5156 397.013 17.0625C396.669 16.5938 396.231 16.2266 395.7 15.9609C395.184 15.6797 394.559 15.5391 393.825 15.5391C393.106 15.5391 392.489 15.7344 391.973 16.125C391.473 16.5 391.044 16.9922 390.684 17.6016C390.325 18.2109 390.036 18.8984 389.817 19.6641C389.614 20.4297 389.458 21.2031 389.348 21.9844C389.239 22.75 389.161 23.4844 389.114 24.1875C389.083 24.8906 389.067 25.4844 389.067 25.9688V39.5391H381.169V26.9297C381.169 26.3828 381.177 25.7266 381.192 24.9609C381.208 24.1797 381.184 23.3672 381.122 22.5234C381.075 21.6797 380.973 20.8438 380.817 20.0156C380.677 19.1719 380.442 18.4219 380.114 17.7656C379.802 17.1094 379.372 16.5781 378.825 16.1719C378.278 15.75 377.591 15.5391 376.763 15.5391C376.059 15.5391 375.466 15.7344 374.981 16.125C374.513 16.5156 374.114 17.0234 373.786 17.6484C373.473 18.2578 373.223 18.9531 373.036 19.7344C372.864 20.5 372.731 21.2734 372.638 22.0547C372.559 22.8203 372.513 23.5547 372.497 24.2578C372.481 24.9453 372.473 25.5156 372.473 25.9688V39.5391H364.528V12.4688H367.575L370.481 18.7734C371.138 16.5859 372.169 14.8828 373.575 13.6641C374.997 12.4297 376.88 11.8125 379.223 11.8125C381.333 11.8125 383.083 12.25 384.473 13.125C385.864 14 386.958 15.4219 387.755 17.3906C388.208 16.5312 388.708 15.7578 389.255 15.0703C389.817 14.3828 390.434 13.7969 391.106 13.3125C391.794 12.8281 392.552 12.4609 393.38 12.2109C394.208 11.9453 395.122 11.8125 396.122 11.8125C397.966 11.8125 399.536 12.1172 400.833 12.7266C402.145 13.3203 403.216 14.1484 404.044 15.2109C404.872 16.2734 405.473 17.5391 405.848 19.0078C406.223 20.4609 406.411 22.0391 406.411 23.7422Z" fill="url(#paint12_linear_27_29)"/>
<path d="M420.6 26.6953C421.569 26.9141 422.538 27.0859 423.506 27.2109C424.475 27.3359 425.452 27.3984 426.436 27.3984C427.467 27.3984 428.42 27.3047 429.295 27.1172C430.186 26.9141 430.952 26.5859 431.592 26.1328C432.248 25.6641 432.764 25.0469 433.139 24.2812C433.514 23.5156 433.702 22.5625 433.702 21.4219C433.702 20.5 433.577 19.6562 433.327 18.8906C433.077 18.125 432.702 17.4688 432.202 16.9219C431.717 16.375 431.116 15.9531 430.397 15.6562C429.678 15.3438 428.842 15.1875 427.889 15.1875C426.998 15.1875 426.194 15.3516 425.475 15.6797C424.772 16.0078 424.147 16.4531 423.6 17.0156C423.069 17.5625 422.608 18.2031 422.217 18.9375C421.842 19.6719 421.53 20.4375 421.28 21.2344C421.03 22.0312 420.85 22.8359 420.741 23.6484C420.631 24.4609 420.577 25.2266 420.577 25.9453C420.577 26.0703 420.577 26.1953 420.577 26.3203C420.577 26.4453 420.584 26.5703 420.6 26.6953ZM440.123 21.3516C440.123 22.4609 439.944 23.4531 439.584 24.3281C439.225 25.1875 438.733 25.9453 438.108 26.6016C437.498 27.2578 436.788 27.8125 435.975 28.2656C435.163 28.7188 434.295 29.0938 433.373 29.3906C432.452 29.6719 431.498 29.875 430.514 30C429.545 30.125 428.6 30.1875 427.678 30.1875C426.506 30.1875 425.35 30.1094 424.209 29.9531C423.069 29.7812 421.944 29.5156 420.834 29.1562C421.006 30.1875 421.28 31.1719 421.655 32.1094C422.03 33.0312 422.53 33.8438 423.155 34.5469C423.78 35.2344 424.545 35.7812 425.452 36.1875C426.373 36.5938 427.459 36.7969 428.709 36.7969C429.538 36.7969 430.327 36.6719 431.077 36.4219C431.827 36.1719 432.514 35.8203 433.139 35.3672C433.764 34.9141 434.311 34.375 434.78 33.75C435.264 33.125 435.655 32.4297 435.952 31.6641L439.373 32.9297C438.858 34.1641 438.147 35.2344 437.241 36.1406C436.35 37.0312 435.334 37.7734 434.194 38.3672C433.069 38.9453 431.866 39.375 430.584 39.6562C429.319 39.9375 428.061 40.0781 426.811 40.0781C424.748 40.0781 422.842 39.7344 421.092 39.0469C419.342 38.3438 417.834 37.3672 416.569 36.1172C415.303 34.8672 414.311 33.375 413.592 31.6406C412.873 29.9062 412.514 28.0078 412.514 25.9453C412.514 23.8828 412.873 21.9844 413.592 20.25C414.311 18.5156 415.303 17.0234 416.569 15.7734C417.834 14.5234 419.342 13.5547 421.092 12.8672C422.842 12.1641 424.748 11.8125 426.811 11.8125C427.811 11.8125 428.834 11.8828 429.881 12.0234C430.928 12.1641 431.944 12.3906 432.928 12.7031C433.913 13 434.842 13.3906 435.717 13.875C436.592 14.3594 437.35 14.9609 437.991 15.6797C438.647 16.3828 439.163 17.2031 439.538 18.1406C439.928 19.0781 440.123 20.1484 440.123 21.3516Z" fill="url(#paint13_linear_27_29)"/>
<path d="M494.634 14.1562L490.627 15.8438C490.314 14.8281 489.892 13.8984 489.361 13.0547C488.845 12.2109 488.22 11.4922 487.486 10.8984C486.767 10.2891 485.947 9.82031 485.025 9.49219C484.103 9.14844 483.095 8.97656 482.002 8.97656C480.83 8.97656 479.752 9.17188 478.767 9.5625C477.798 9.9375 476.923 10.4609 476.142 11.1328C475.377 11.8047 474.705 12.5859 474.127 13.4766C473.548 14.3672 473.064 15.3203 472.673 16.3359C472.283 17.3359 471.994 18.375 471.806 19.4531C471.619 20.5312 471.525 21.5859 471.525 22.6172C471.525 24.2578 471.712 25.8906 472.087 27.5156C472.478 29.1406 473.087 30.6016 473.916 31.8984C474.759 33.1953 475.845 34.25 477.173 35.0625C478.502 35.8594 480.111 36.2578 482.002 36.2578C483.002 36.2578 483.947 36.0938 484.837 35.7656C485.728 35.4219 486.533 34.9609 487.252 34.3828C487.986 33.7891 488.627 33.0938 489.173 32.2969C489.72 31.5 490.158 30.6406 490.486 29.7188L494.541 31.3359C493.947 32.8203 493.134 34.125 492.103 35.25C491.072 36.3594 489.892 37.2812 488.564 38.0156C487.252 38.75 485.837 39.2969 484.322 39.6562C482.822 40.0312 481.306 40.2188 479.775 40.2188C478.119 40.2188 476.525 40.0156 474.994 39.6094C473.478 39.2031 472.064 38.625 470.752 37.875C469.439 37.125 468.244 36.2188 467.166 35.1562C466.103 34.0938 465.189 32.9141 464.423 31.6172C463.673 30.3203 463.087 28.9141 462.666 27.3984C462.259 25.8672 462.056 24.2734 462.056 22.6172C462.056 20.9609 462.259 19.375 462.666 17.8594C463.087 16.3281 463.673 14.9141 464.423 13.6172C465.189 12.3047 466.103 11.1172 467.166 10.0547C468.244 8.99219 469.439 8.08594 470.752 7.33594C472.064 6.58594 473.478 6.00781 474.994 5.60156C476.525 5.19531 478.119 4.99219 479.775 4.99219C481.369 4.99219 482.923 5.17969 484.439 5.55469C485.97 5.92969 487.392 6.5 488.705 7.26562C490.017 8.01562 491.181 8.96875 492.197 10.125C493.228 11.2656 494.041 12.6094 494.634 14.1562Z" fill="url(#paint14_linear_27_29)"/>
<path d="M530.55 25.9453C530.55 27.3516 530.362 28.6719 529.987 29.9062C529.612 31.1406 529.089 32.2812 528.417 33.3281C527.761 34.375 526.964 35.3203 526.027 36.1641C525.089 36.9922 524.058 37.6953 522.933 38.2734C521.823 38.8516 520.628 39.2969 519.347 39.6094C518.081 39.9219 516.777 40.0781 515.433 40.0781C514.089 40.0781 512.784 39.9219 511.519 39.6094C510.253 39.2969 509.058 38.8516 507.933 38.2734C506.823 37.6953 505.8 36.9922 504.863 36.1641C503.925 35.3203 503.12 34.375 502.448 33.3281C501.792 32.2812 501.277 31.1406 500.902 29.9062C500.527 28.6562 500.339 27.3359 500.339 25.9453C500.339 24.5547 500.527 23.2422 500.902 22.0078C501.277 20.7578 501.792 19.6094 502.448 18.5625C503.12 17.5156 503.925 16.5781 504.863 15.75C505.8 14.9062 506.823 14.1953 507.933 13.6172C509.058 13.0391 510.253 12.5938 511.519 12.2812C512.784 11.9688 514.089 11.8125 515.433 11.8125C516.777 11.8125 518.081 11.9688 519.347 12.2812C520.628 12.5938 521.823 13.0391 522.933 13.6172C524.058 14.1953 525.089 14.9062 526.027 15.75C526.964 16.5781 527.761 17.5156 528.417 18.5625C529.089 19.6094 529.612 20.7578 529.987 22.0078C530.362 23.2422 530.55 24.5547 530.55 25.9453ZM522.487 25.9453C522.487 25.1953 522.441 24.4062 522.347 23.5781C522.269 22.7344 522.128 21.9141 521.925 21.1172C521.722 20.3047 521.441 19.5312 521.081 18.7969C520.737 18.0469 520.308 17.3984 519.792 16.8516C519.277 16.2891 518.659 15.8438 517.941 15.5156C517.222 15.1719 516.386 15 515.433 15C514.527 15 513.722 15.1719 513.019 15.5156C512.316 15.8594 511.698 16.3203 511.167 16.8984C510.652 17.4609 510.214 18.1172 509.855 18.8672C509.511 19.6172 509.23 20.3984 509.011 21.2109C508.792 22.0078 508.636 22.8203 508.542 23.6484C508.448 24.4609 508.402 25.2266 508.402 25.9453C508.402 26.6641 508.448 27.4375 508.542 28.2656C508.636 29.0781 508.792 29.8906 509.011 30.7031C509.23 31.5156 509.511 32.2969 509.855 33.0469C510.214 33.7812 510.652 34.4375 511.167 35.0156C511.698 35.5781 512.316 36.0312 513.019 36.375C513.722 36.7188 514.527 36.8906 515.433 36.8906C516.37 36.8906 517.198 36.7266 517.917 36.3984C518.636 36.0547 519.253 35.6016 519.769 35.0391C520.3 34.4766 520.737 33.8281 521.081 33.0938C521.425 32.3594 521.698 31.5859 521.902 30.7734C522.12 29.9609 522.269 29.1406 522.347 28.3125C522.441 27.4844 522.487 26.6953 522.487 25.9453Z" fill="url(#paint15_linear_27_29)"/>
<path d="M545.887 39.5391H537.966V0H541.012L545.887 8.22656V39.5391Z" fill="url(#paint16_linear_27_29)"/>
<path d="M562.819 39.5391H554.897V0H557.944L562.819 8.22656V39.5391Z" fill="url(#paint17_linear_27_29)"/>
<path d="M578.344 26.6953C579.312 26.9141 580.281 27.0859 581.25 27.2109C582.219 27.3359 583.195 27.3984 584.18 27.3984C585.211 27.3984 586.164 27.3047 587.039 27.1172C587.93 26.9141 588.695 26.5859 589.336 26.1328C589.992 25.6641 590.508 25.0469 590.883 24.2812C591.258 23.5156 591.445 22.5625 591.445 21.4219C591.445 20.5 591.32 19.6562 591.07 18.8906C590.82 18.125 590.445 17.4688 589.945 16.9219C589.461 16.375 588.859 15.9531 588.141 15.6562C587.422 15.3438 586.586 15.1875 585.633 15.1875C584.742 15.1875 583.938 15.3516 583.219 15.6797C582.516 16.0078 581.891 16.4531 581.344 17.0156C580.812 17.5625 580.352 18.2031 579.961 18.9375C579.586 19.6719 579.273 20.4375 579.023 21.2344C578.773 22.0312 578.594 22.8359 578.484 23.6484C578.375 24.4609 578.32 25.2266 578.32 25.9453C578.32 26.0703 578.32 26.1953 578.32 26.3203C578.32 26.4453 578.328 26.5703 578.344 26.6953ZM597.867 21.3516C597.867 22.4609 597.688 23.4531 597.328 24.3281C596.969 25.1875 596.477 25.9453 595.852 26.6016C595.242 27.2578 594.531 27.8125 593.719 28.2656C592.906 28.7188 592.039 29.0938 591.117 29.3906C590.195 29.6719 589.242 29.875 588.258 30C587.289 30.125 586.344 30.1875 585.422 30.1875C584.25 30.1875 583.094 30.1094 581.953 29.9531C580.812 29.7812 579.688 29.5156 578.578 29.1562C578.75 30.1875 579.023 31.1719 579.398 32.1094C579.773 33.0312 580.273 33.8438 580.898 34.5469C581.523 35.2344 582.289 35.7812 583.195 36.1875C584.117 36.5938 585.203 36.7969 586.453 36.7969C587.281 36.7969 588.07 36.6719 588.82 36.4219C589.57 36.1719 590.258 35.8203 590.883 35.3672C591.508 34.9141 592.055 34.375 592.523 33.75C593.008 33.125 593.398 32.4297 593.695 31.6641L597.117 32.9297C596.602 34.1641 595.891 35.2344 594.984 36.1406C594.094 37.0312 593.078 37.7734 591.938 38.3672C590.812 38.9453 589.609 39.375 588.328 39.6562C587.062 39.9375 585.805 40.0781 584.555 40.0781C582.492 40.0781 580.586 39.7344 578.836 39.0469C577.086 38.3438 575.578 37.3672 574.312 36.1172C573.047 34.8672 572.055 33.375 571.336 31.6406C570.617 29.9062 570.258 28.0078 570.258 25.9453C570.258 23.8828 570.617 21.9844 571.336 20.25C572.055 18.5156 573.047 17.0234 574.312 15.7734C575.578 14.5234 577.086 13.5547 578.836 12.8672C580.586 12.1641 582.492 11.8125 584.555 11.8125C585.555 11.8125 586.578 11.8828 587.625 12.0234C588.672 12.1641 589.688 12.3906 590.672 12.7031C591.656 13 592.586 13.3906 593.461 13.875C594.336 14.3594 595.094 14.9609 595.734 15.6797C596.391 16.3828 596.906 17.2031 597.281 18.1406C597.672 19.0781 597.867 20.1484 597.867 21.3516Z" fill="url(#paint18_linear_27_29)"/>
<path d="M630.197 19.1719L626.775 20.5312C626.228 18.8125 625.314 17.4922 624.033 16.5703C622.752 15.6484 621.212 15.1875 619.416 15.1875C618.447 15.1875 617.58 15.3438 616.814 15.6562C616.064 15.9531 615.4 16.3672 614.822 16.8984C614.259 17.4297 613.775 18.0469 613.369 18.75C612.978 19.4531 612.658 20.2031 612.408 21C612.158 21.7969 611.978 22.625 611.869 23.4844C611.759 24.3281 611.705 25.1484 611.705 25.9453C611.705 26.8047 611.752 27.6719 611.845 28.5469C611.939 29.4219 612.095 30.2656 612.314 31.0781C612.548 31.875 612.853 32.625 613.228 33.3281C613.603 34.0156 614.072 34.6172 614.634 35.1328C615.212 35.6484 615.892 36.0547 616.673 36.3516C617.47 36.6484 618.384 36.7969 619.416 36.7969C620.244 36.7969 621.033 36.6719 621.783 36.4219C622.533 36.1719 623.22 35.8203 623.845 35.3672C624.47 34.9141 625.025 34.375 625.509 33.75C625.994 33.125 626.377 32.4297 626.658 31.6641L630.103 32.9297C629.587 34.1641 628.9 35.2344 628.041 36.1406C627.197 37.0312 626.236 37.7734 625.158 38.3672C624.08 38.9453 622.923 39.375 621.689 39.6562C620.455 39.9375 619.205 40.0781 617.939 40.0781C615.892 40.0781 613.994 39.7344 612.244 39.0469C610.494 38.3438 608.978 37.3672 607.697 36.1172C606.431 34.8516 605.439 33.3594 604.72 31.6406C604.002 29.9062 603.642 28.0078 603.642 25.9453C603.642 23.8672 603.994 21.9609 604.697 20.2266C605.416 18.4922 606.408 17 607.673 15.75C608.939 14.5 610.447 13.5312 612.197 12.8438C613.947 12.1562 615.861 11.8125 617.939 11.8125C619.252 11.8125 620.533 11.9609 621.783 12.2578C623.033 12.5391 624.189 12.9844 625.252 13.5938C626.33 14.1875 627.291 14.9453 628.134 15.8672C628.994 16.7891 629.681 17.8906 630.197 19.1719Z" fill="url(#paint19_linear_27_29)"/>
<path d="M647.48 39.5391H639.534V15.6094H634.612V12.4688H639.534V2.50781H647.48V12.4688H655.683V15.6094H647.48V39.5391Z" fill="url(#paint20_linear_27_29)"/>
<path d="M670.083 5.92969C670.083 6.52344 669.966 7.08594 669.731 7.61719C669.512 8.14844 669.208 8.60938 668.817 9C668.427 9.39062 667.966 9.70312 667.434 9.9375C666.903 10.1562 666.341 10.2656 665.747 10.2656C665.153 10.2656 664.591 10.1562 664.059 9.9375C663.544 9.70312 663.091 9.39062 662.7 9C662.309 8.60938 661.997 8.14844 661.762 7.61719C661.544 7.08594 661.434 6.52344 661.434 5.92969C661.434 5.33594 661.544 4.78125 661.762 4.26562C661.997 3.73438 662.309 3.27344 662.7 2.88281C663.091 2.49219 663.544 2.1875 664.059 1.96875C664.591 1.73438 665.153 1.61719 665.747 1.61719C666.341 1.61719 666.903 1.73438 667.434 1.96875C667.966 2.1875 668.427 2.49219 668.817 2.88281C669.208 3.27344 669.512 3.73438 669.731 4.26562C669.966 4.78125 670.083 5.33594 670.083 5.92969ZM669.731 39.5391H661.786V12.4922H669.731V39.5391Z" fill="url(#paint21_linear_27_29)"/>
<path d="M707.381 25.9453C707.381 27.3516 707.194 28.6719 706.819 29.9062C706.444 31.1406 705.92 32.2812 705.248 33.3281C704.592 34.375 703.795 35.3203 702.858 36.1641C701.92 36.9922 700.889 37.6953 699.764 38.2734C698.655 38.8516 697.459 39.2969 696.178 39.6094C694.912 39.9219 693.608 40.0781 692.264 40.0781C690.92 40.0781 689.616 39.9219 688.35 39.6094C687.084 39.2969 685.889 38.8516 684.764 38.2734C683.655 37.6953 682.631 36.9922 681.694 36.1641C680.756 35.3203 679.952 34.375 679.28 33.3281C678.623 32.2812 678.108 31.1406 677.733 29.9062C677.358 28.6562 677.17 27.3359 677.17 25.9453C677.17 24.5547 677.358 23.2422 677.733 22.0078C678.108 20.7578 678.623 19.6094 679.28 18.5625C679.952 17.5156 680.756 16.5781 681.694 15.75C682.631 14.9062 683.655 14.1953 684.764 13.6172C685.889 13.0391 687.084 12.5938 688.35 12.2812C689.616 11.9688 690.92 11.8125 692.264 11.8125C693.608 11.8125 694.912 11.9688 696.178 12.2812C697.459 12.5938 698.655 13.0391 699.764 13.6172C700.889 14.1953 701.92 14.9062 702.858 15.75C703.795 16.5781 704.592 17.5156 705.248 18.5625C705.92 19.6094 706.444 20.7578 706.819 22.0078C707.194 23.2422 707.381 24.5547 707.381 25.9453ZM699.319 25.9453C699.319 25.1953 699.272 24.4062 699.178 23.5781C699.1 22.7344 698.959 21.9141 698.756 21.1172C698.553 20.3047 698.272 19.5312 697.912 18.7969C697.569 18.0469 697.139 17.3984 696.623 16.8516C696.108 16.2891 695.491 15.8438 694.772 15.5156C694.053 15.1719 693.217 15 692.264 15C691.358 15 690.553 15.1719 689.85 15.5156C689.147 15.8594 688.53 16.3203 687.998 16.8984C687.483 17.4609 687.045 18.1172 686.686 18.8672C686.342 19.6172 686.061 20.3984 685.842 21.2109C685.623 22.0078 685.467 22.8203 685.373 23.6484C685.28 24.4609 685.233 25.2266 685.233 25.9453C685.233 26.6641 685.28 27.4375 685.373 28.2656C685.467 29.0781 685.623 29.8906 685.842 30.7031C686.061 31.5156 686.342 32.2969 686.686 33.0469C687.045 33.7812 687.483 34.4375 687.998 35.0156C688.53 35.5781 689.147 36.0312 689.85 36.375C690.553 36.7188 691.358 36.8906 692.264 36.8906C693.202 36.8906 694.03 36.7266 694.748 36.3984C695.467 36.0547 696.084 35.6016 696.6 35.0391C697.131 34.4766 697.569 33.8281 697.912 33.0938C698.256 32.3594 698.53 31.5859 698.733 30.7734C698.952 29.9609 699.1 29.1406 699.178 28.3125C699.272 27.4844 699.319 26.6953 699.319 25.9453Z" fill="url(#paint22_linear_27_29)"/>
<path d="M742.477 24.0234C742.477 25.8516 742.25 27.7578 741.797 29.7422C741.359 31.7266 740.742 33.6719 739.945 35.5781C739.148 37.4844 738.195 39.2734 737.086 40.9453C735.977 42.6328 734.758 44.0859 733.43 45.3047L730.453 43.6875C730.875 42.9062 731.273 42.0312 731.648 41.0625C732.023 40.0938 732.359 39.0703 732.656 37.9922C732.969 36.8984 733.242 35.7734 733.477 34.6172C733.727 33.4609 733.93 32.3203 734.086 31.1953C734.258 30.0547 734.383 28.9531 734.461 27.8906C734.555 26.8125 734.602 25.8125 734.602 24.8906C734.602 24.2812 734.578 23.6328 734.531 22.9453C734.484 22.2422 734.383 21.5469 734.227 20.8594C734.086 20.1562 733.891 19.4844 733.641 18.8438C733.391 18.2031 733.055 17.6406 732.633 17.1562C732.227 16.6719 731.727 16.2812 731.133 15.9844C730.555 15.6875 729.867 15.5391 729.07 15.5391C728.289 15.5391 727.594 15.7188 726.984 16.0781C726.375 16.4219 725.836 16.8828 725.367 17.4609C724.898 18.0234 724.492 18.6719 724.148 19.4062C723.82 20.1406 723.547 20.8984 723.328 21.6797C723.125 22.4453 722.977 23.2031 722.883 23.9531C722.789 24.7031 722.742 25.375 722.742 25.9688V39.5391H714.797V12.4688H717.844L721.477 18.7734C721.914 17.7266 722.461 16.7734 723.117 15.9141C723.773 15.0547 724.516 14.3203 725.344 13.7109C726.172 13.1016 727.086 12.6328 728.086 12.3047C729.102 11.9766 730.195 11.8125 731.367 11.8125C733.242 11.8125 734.875 12.1172 736.266 12.7266C737.656 13.3359 738.812 14.1875 739.734 15.2812C740.656 16.3594 741.344 17.6484 741.797 19.1484C742.25 20.6328 742.477 22.2578 742.477 24.0234Z" fill="url(#paint23_linear_27_29)"/>
<defs>
<linearGradient id="paint0_linear_27_29" x1="-1.31406" y1="15.0393" x2="745.186" y2="39.5392" gradientUnits="userSpaceOnUse">
<stop stop-color="#954FCD"/>
<stop offset="1" stop-color="white"/>
</linearGradient>
<linearGradient id="paint1_linear_27_29" x1="-1.31406" y1="15.0393" x2="745.186" y2="39.5392" gradientUnits="userSpaceOnUse">
<stop stop-color="#954FCD"/>
<stop offset="1" stop-color="white"/>
</linearGradient>
<linearGradient id="paint2_linear_27_29" x1="-1.31406" y1="15.0393" x2="745.186" y2="39.5392" gradientUnits="userSpaceOnUse">
<stop stop-color="#954FCD"/>
<stop offset="1" stop-color="white"/>
</linearGradient>
<linearGradient id="paint3_linear_27_29" x1="-1.31406" y1="15.0393" x2="745.186" y2="39.5392" gradientUnits="userSpaceOnUse">
<stop stop-color="#954FCD"/>
<stop offset="1" stop-color="white"/>
</linearGradient>
<linearGradient id="paint4_linear_27_29" x1="-1.31406" y1="15.0393" x2="745.186" y2="39.5392" gradientUnits="userSpaceOnUse">
<stop stop-color="#954FCD"/>
<stop offset="1" stop-color="white"/>
</linearGradient>
<linearGradient id="paint5_linear_27_29" x1="-1.31406" y1="15.0393" x2="745.186" y2="39.5392" gradientUnits="userSpaceOnUse">
<stop stop-color="#954FCD"/>
<stop offset="1" stop-color="white"/>
</linearGradient>
<linearGradient id="paint6_linear_27_29" x1="-1.31406" y1="15.0393" x2="745.186" y2="39.5392" gradientUnits="userSpaceOnUse">
<stop stop-color="#954FCD"/>
<stop offset="1" stop-color="white"/>
</linearGradient>
<linearGradient id="paint7_linear_27_29" x1="-1.31406" y1="15.0393" x2="745.186" y2="39.5392" gradientUnits="userSpaceOnUse">
<stop stop-color="#954FCD"/>
<stop offset="1" stop-color="white"/>
</linearGradient>
<linearGradient id="paint8_linear_27_29" x1="-1.31406" y1="15.0393" x2="745.186" y2="39.5392" gradientUnits="userSpaceOnUse">
<stop stop-color="#954FCD"/>
<stop offset="1" stop-color="white"/>
</linearGradient>
<linearGradient id="paint9_linear_27_29" x1="-1.31406" y1="15.0393" x2="745.186" y2="39.5392" gradientUnits="userSpaceOnUse">
<stop stop-color="#954FCD"/>
<stop offset="1" stop-color="white"/>
</linearGradient>
<linearGradient id="paint10_linear_27_29" x1="-1.31406" y1="15.0393" x2="745.186" y2="39.5392" gradientUnits="userSpaceOnUse">
<stop stop-color="#954FCD"/>
<stop offset="1" stop-color="white"/>
</linearGradient>
<linearGradient id="paint11_linear_27_29" x1="-1.31406" y1="15.0393" x2="745.186" y2="39.5392" gradientUnits="userSpaceOnUse">
<stop stop-color="#954FCD"/>
<stop offset="1" stop-color="white"/>
</linearGradient>
<linearGradient id="paint12_linear_27_29" x1="-1.31406" y1="15.0393" x2="745.186" y2="39.5392" gradientUnits="userSpaceOnUse">
<stop stop-color="#954FCD"/>
<stop offset="1" stop-color="white"/>
</linearGradient>
<linearGradient id="paint13_linear_27_29" x1="-1.31406" y1="15.0393" x2="745.186" y2="39.5392" gradientUnits="userSpaceOnUse">
<stop stop-color="#954FCD"/>
<stop offset="1" stop-color="white"/>
</linearGradient>
<linearGradient id="paint14_linear_27_29" x1="-1.31406" y1="15.0393" x2="745.186" y2="39.5392" gradientUnits="userSpaceOnUse">
<stop stop-color="#954FCD"/>
<stop offset="1" stop-color="white"/>
</linearGradient>
<linearGradient id="paint15_linear_27_29" x1="-1.31406" y1="15.0393" x2="745.186" y2="39.5392" gradientUnits="userSpaceOnUse">
<stop stop-color="#954FCD"/>
<stop offset="1" stop-color="white"/>
</linearGradient>
<linearGradient id="paint16_linear_27_29" x1="-1.31406" y1="15.0393" x2="745.186" y2="39.5392" gradientUnits="userSpaceOnUse">
<stop stop-color="#954FCD"/>
<stop offset="1" stop-color="white"/>
</linearGradient>
<linearGradient id="paint17_linear_27_29" x1="-1.31406" y1="15.0393" x2="745.186" y2="39.5392" gradientUnits="userSpaceOnUse">
<stop stop-color="#954FCD"/>
<stop offset="1" stop-color="white"/>
</linearGradient>
<linearGradient id="paint18_linear_27_29" x1="-1.31406" y1="15.0393" x2="745.186" y2="39.5392" gradientUnits="userSpaceOnUse">
<stop stop-color="#954FCD"/>
<stop offset="1" stop-color="white"/>
</linearGradient>
<linearGradient id="paint19_linear_27_29" x1="-1.31406" y1="15.0393" x2="745.186" y2="39.5392" gradientUnits="userSpaceOnUse">
<stop stop-color="#954FCD"/>
<stop offset="1" stop-color="white"/>
</linearGradient>
<linearGradient id="paint20_linear_27_29" x1="-1.31406" y1="15.0393" x2="745.186" y2="39.5392" gradientUnits="userSpaceOnUse">
<stop stop-color="#954FCD"/>
<stop offset="1" stop-color="white"/>
</linearGradient>
<linearGradient id="paint21_linear_27_29" x1="-1.31406" y1="15.0393" x2="745.186" y2="39.5392" gradientUnits="userSpaceOnUse">
<stop stop-color="#954FCD"/>
<stop offset="1" stop-color="white"/>
</linearGradient>
<linearGradient id="paint22_linear_27_29" x1="-1.31406" y1="15.0393" x2="745.186" y2="39.5392" gradientUnits="userSpaceOnUse">
<stop stop-color="#954FCD"/>
<stop offset="1" stop-color="white"/>
</linearGradient>
<linearGradient id="paint23_linear_27_29" x1="-1.31406" y1="15.0393" x2="745.186" y2="39.5392" gradientUnits="userSpaceOnUse">
<stop stop-color="#954FCD"/>
<stop offset="1" stop-color="white"/>
</linearGradient>
</defs>
</svg>
