<svg width="2179" height="486" viewBox="0 0 2179 486" fill="none" xmlns="http://www.w3.org/2000/svg">
<g filter="url(#filter0_f_1_75)">
<path d="M1993 243C1993 274.48 1588.49 300 1089.5 300C590.511 300 186 274.48 186 243C186 211.52 590.511 186 1089.5 186C1588.49 186 1993 211.52 1993 243Z" fill="#954FCD"/>
<path d="M1992.5 243C1992.5 244.686 1991.14 246.5 1988.07 248.403C1985.04 250.286 1980.5 252.159 1974.5 254.01C1962.5 257.709 1944.78 261.284 1921.92 264.692C1876.23 271.509 1810.09 277.649 1728.34 282.806C1564.85 293.12 1338.99 299.5 1089.5 299.5C840.012 299.5 614.148 293.12 450.661 282.806C368.915 277.649 302.774 271.509 257.075 264.692C234.222 261.284 216.502 257.709 204.503 254.01C198.5 252.159 193.959 250.286 190.929 248.403C187.865 246.5 186.5 244.686 186.5 243C186.5 241.314 187.865 239.5 190.929 237.597C193.959 235.714 198.5 233.841 204.503 231.99C216.502 228.291 234.222 224.716 257.075 221.308C302.774 214.491 368.915 208.351 450.661 203.194C614.148 192.88 840.012 186.5 1089.5 186.5C1338.99 186.5 1564.85 192.88 1728.34 203.194C1810.09 208.351 1876.23 214.491 1921.92 221.308C1944.78 224.716 1962.5 228.291 1974.5 231.99C1980.5 233.841 1985.04 235.714 1988.07 237.597C1991.14 239.5 1992.5 241.314 1992.5 243Z" stroke="black"/>
</g>
<defs>
<filter id="filter0_f_1_75" x="0" y="0" width="2179" height="486" filterUnits="userSpaceOnUse" color-interpolation-filters="sRGB">
<feFlood flood-opacity="0" result="BackgroundImageFix"/>
<feBlend mode="normal" in="SourceGraphic" in2="BackgroundImageFix" result="shape"/>
<feGaussianBlur stdDeviation="93" result="effect1_foregroundBlur_1_75"/>
</filter>
</defs>
</svg>
