<svg width="18" height="15" viewBox="0 0 18 15" fill="none" xmlns="http://www.w3.org/2000/svg">
<path d="M15.6837 4.03768C15.6947 4.18868 15.6947 4.33968 15.6947 4.49168C15.6947 9.09668 12.1887 14.4037 5.78166 14.4037C3.80766 14.4037 1.97366 13.8317 0.430664 12.8397C0.711664 12.8717 0.981664 12.8817 1.27266 12.8817C2.90166 12.8817 4.39966 12.3317 5.59766 11.3937C4.06566 11.3617 2.78266 10.3577 2.34066 8.97668C2.55566 9.00868 2.77166 9.03068 2.99666 9.03068C3.31066 9.03068 3.62366 8.98768 3.91466 8.91268C2.31866 8.58868 1.12066 7.18668 1.12066 5.49368C1.12066 5.48268 1.12066 5.46068 1.12066 5.45068C1.58466 5.70868 2.12366 5.87068 2.69566 5.89268C1.75766 5.26668 1.14266 4.19868 1.14266 2.99168C1.14266 2.34468 1.31566 1.75068 1.61766 1.23268C3.33266 3.34768 5.91066 4.72868 8.80166 4.87868C8.74666 4.61968 8.71466 4.34968 8.71466 4.07968C8.71466 2.16068 10.2687 0.59668 12.1987 0.59668C13.2017 0.59668 14.1077 1.01668 14.7447 1.69668C15.5317 1.54568 16.2857 1.25468 16.9557 0.85568C16.6967 1.66468 16.1467 2.34468 15.4237 2.77468C16.1257 2.69968 16.8047 2.50568 17.4307 2.23568C16.9557 2.92568 16.3627 3.54168 15.6837 4.03768Z" fill="white"/>
</svg>
